<?xml version="1.0" standalone="no"?>
<!DOCTYPE svg PUBLIC "-//W3C//DTD SVG 20010904//EN"
 "http://www.w3.org/TR/2001/REC-SVG-20010904/DTD/svg10.dtd">
<svg version="1.0" xmlns="http://www.w3.org/2000/svg"
 width="626.000000pt" height="626.000000pt" viewBox="0 0 626.000000 626.000000"
 preserveAspectRatio="xMidYMid meet">

<g transform="translate(0.000000,626.000000) scale(0.100000,-0.100000)"
fill="#000000" stroke="none">
<path d="M3425 4759 c39 -5 104 -19 145 -30 41 -11 90 -23 107 -26 18 -3 30
-9 27 -14 -7 -11 7 -11 24 0 15 9 19 8 -128 46 -52 13 -129 27 -170 29 l-75 5
70 -10z"/>
<path d="M3760 4670 c-9 -6 -10 -10 -3 -10 6 0 15 5 18 10 8 12 4 12 -15 0z"/>
<path d="M2447 4393 c-42 -13 -75 -28 -72 -33 3 -6 -1 -7 -10 -4 -15 6 -201
-80 -240 -111 -11 -9 -14 -13 -6 -9 9 5 12 3 7 -5 -4 -6 -12 -9 -17 -6 -5 3
-14 1 -21 -5 -7 -6 -32 -24 -56 -41 -23 -17 -39 -36 -35 -41 3 -7 1 -8 -6 -4
-7 5 -36 -17 -74 -54 -34 -34 -56 -59 -49 -55 14 7 17 -11 2 -20 -5 -3 -10
-11 -10 -17 0 -6 8 -4 18 5 10 10 27 17 36 17 12 0 16 5 12 15 -3 9 3 20 14
27 25 16 25 25 3 31 -12 3 -8 5 9 6 15 0 30 6 33 11 10 17 24 2 18 -20 -5 -17
0 -20 26 -20 23 0 30 -4 25 -12 -11 -20 6 -1 69 79 32 39 74 83 93 98 19 14
31 31 28 37 -4 6 -3 8 3 5 6 -4 28 6 49 21 61 44 148 91 206 112 77 27 37 22
-55 -7z m-334 -266 c-15 -19 -30 -32 -32 -30 -5 3 49 63 57 63 2 0 -9 -15 -25
-33z m-143 -17 c0 -5 -5 -10 -11 -10 -5 0 -7 5 -4 10 3 6 8 10 11 10 2 0 4 -4
4 -10z m-57 -60 c-3 -11 -12 -20 -21 -20 -13 0 -12 3 3 20 10 11 19 20 21 20
1 0 0 -9 -3 -20z"/>
<path d="M2800 4054 c-80 -13 -169 -26 -197 -30 -53 -7 -66 -17 -38 -28 13 -5
15 -46 15 -284 0 -236 -2 -281 -15 -292 -17 -14 -20 -61 -5 -76 6 -6 -2 -32
-21 -70 -24 -47 -32 -80 -36 -141 -6 -78 -5 -80 18 -86 37 -10 115 -8 145 3
27 11 27 11 21 92 -4 63 -12 94 -35 139 -25 49 -28 60 -16 70 20 16 17 43 -6
64 -19 17 -20 31 -20 287 0 175 4 268 10 268 6 0 54 -21 108 -46 53 -25 113
-52 133 -59 l37 -13 -3 34 c-2 18 -6 38 -10 44 -3 5 -1 10 5 10 6 0 10 6 8 13
-3 15 23 80 36 89 6 4 0 8 -14 9 -20 0 -17 3 15 14 57 19 30 16 -135 -11z"/>
<path d="M2016 3983 c-6 -14 -5 -15 5 -6 7 7 10 15 7 18 -3 3 -9 -2 -12 -12z"/>
<path d="M1811 3966 c-8 -10 -9 -16 -1 -21 6 -3 7 -12 3 -18 -4 -7 1 -5 12 3
16 14 16 15 1 18 -9 2 -14 8 -10 13 3 5 10 6 16 3 7 -4 8 -2 4 4 -9 15 -11 15
-25 -2z"/>
<path d="M3853 3909 c12 -7 15 -15 9 -22 -10 -12 0 -126 12 -146 5 -7 -2 -11
-16 -12 -13 0 -18 -3 -12 -5 6 -3 75 7 155 21 79 14 148 25 153 25 24 0 -19
23 -157 84 -139 62 -187 80 -144 55z"/>
<path d="M2829 3793 c-9 -11 -10 -14 -1 -9 20 12 14 -19 -8 -39 -22 -20 -50
-102 -50 -149 l0 -30 31 30 31 29 -9 -30 c-10 -37 -9 -140 2 -218 8 -56 7 -59
-24 -91 l-31 -32 31 -30 c24 -23 29 -35 25 -56 -4 -21 -1 -28 14 -33 14 -4 20
-15 20 -35 0 -20 6 -31 20 -35 20 -6 24 -18 20 -66 -2 -32 31 -59 70 -59 14 0
57 9 95 19 39 11 73 17 76 13 3 -4 25 -41 48 -83 l41 -77 -32 -13 c-86 -35
-227 -148 -301 -240 l-37 -46 68 -46 c37 -25 96 -75 131 -111 l64 -65 74 80
c84 89 173 151 297 210 106 49 205 75 349 90 62 7 114 13 116 15 13 11 -89
116 -183 186 -147 110 -214 174 -255 242 -19 31 -32 58 -30 59 2 2 27 19 54
39 28 20 63 51 80 70 l30 33 -38 -35 c-36 -33 -37 -34 -35 -10 2 16 -3 25 -14
28 -11 2 -18 -3 -18 -12 0 -9 -4 -16 -10 -16 -5 0 -10 9 -10 20 0 11 -4 20
-10 20 -5 0 -10 9 -10 20 0 15 -7 20 -25 20 -18 0 -25 5 -25 18 0 21 -30 52
-49 52 -7 0 -9 5 -5 12 4 6 3 8 -3 5 -5 -3 -22 3 -39 14 -32 21 -49 25 -39 9
3 -5 2 -10 -3 -10 -11 0 -48 40 -44 49 4 10 -28 42 -37 36 -5 -3 -15 8 -23 25
-7 16 -19 30 -25 30 -21 0 -15 16 12 30 20 10 28 11 37 2 7 -7 19 -12 27 -12
20 0 11 7 -33 25 -21 9 -35 12 -32 6 11 -17 -31 -33 -55 -21 -11 7 -18 14 -15
18 4 3 -4 12 -16 19 -13 7 -17 12 -10 13 6 0 12 4 12 8 0 13 -50 33 -62 26 -6
-4 -8 -3 -5 3 4 6 -38 29 -95 54 -56 24 -105 45 -108 47 -4 1 -13 -5 -21 -15z"/>
<path d="M3125 3670 c-3 -5 0 -7 8 -4 8 3 18 1 22 -5 3 -6 14 -11 23 -11 11 0
6 6 -12 15 -34 18 -33 18 -41 5z"/>
<path d="M3310 3596 c0 -2 7 -7 16 -10 8 -3 12 -2 9 4 -6 10 -25 14 -25 6z"/>
<path d="M3363 3573 c9 -2 23 -2 30 0 6 3 -1 5 -18 5 -16 0 -22 -2 -12 -5z"/>
<path d="M4687 3352 c-19 -261 -119 -495 -289 -677 -48 -52 -57 -66 -44 -71
21 -8 44 12 116 102 97 122 170 284 204 454 15 77 33 280 24 280 -3 0 -8 -40
-11 -88z"/>
<path d="M3903 3154 c-26 -59 -48 -201 -39 -248 11 -56 31 -67 106 -55 92 15
219 76 205 98 -2 5 8 19 23 32 l27 24 -25 -30 -25 -30 28 25 c43 37 69 77 52
77 -8 0 -12 -4 -9 -8 5 -9 -35 -33 -43 -26 -2 3 -6 13 -7 24 -2 10 -7 18 -12
18 -5 1 -20 5 -32 9 -19 6 -23 14 -20 36 2 16 1 27 -4 24 -4 -3 -10 5 -12 18
-3 13 -7 32 -9 43 -8 37 -6 -38 2 -87 8 -52 3 -58 -23 -29 -10 11 -25 17 -36
14 -12 -3 -24 4 -36 22 -9 14 -24 24 -33 23 -9 -2 -24 5 -33 15 -10 12 -22 16
-30 11 -10 -6 -10 -4 0 9 8 9 12 22 10 28 -2 7 -14 -10 -25 -37z m4 -36 c-3
-8 -6 -5 -6 6 -1 11 2 17 5 13 3 -3 4 -12 1 -19z"/>
<path d="M4736 3138 c-10 -51 -92 -233 -143 -320 -26 -44 -76 -115 -111 -159
-60 -77 -62 -80 -40 -88 13 -5 49 -20 80 -34 l56 -25 35 81 c72 170 117 341
132 505 6 75 2 95 -9 40z"/>
<path d="M4356 3133 c-6 -14 -5 -15 5 -6 7 7 10 15 7 18 -3 3 -9 -2 -12 -12z"/>
<path d="M4536 3090 c-14 -17 -28 -30 -31 -29 -5 1 -77 -9 -116 -16 -14 -3
-19 2 -19 18 0 16 -3 18 -9 9 -7 -11 -9 -10 -15 3 -3 9 -10 13 -16 10 -6 -4
-8 -10 -5 -15 3 -5 -3 -13 -12 -19 -10 -6 -14 -11 -9 -11 4 0 -2 -8 -13 -18
-12 -9 -23 -26 -25 -37 -2 -11 -7 -19 -12 -18 -5 1 -31 -19 -59 -46 -64 -61
-105 -85 -182 -107 l-62 -17 28 -33 c16 -18 37 -45 46 -62 16 -27 24 -30 112
-41 l95 -13 54 37 c78 54 83 62 40 71 -36 6 -50 24 -21 24 43 0 172 91 159
112 -3 5 0 7 7 6 7 -2 24 17 37 41 14 24 20 41 14 37 -8 -4 -8 3 -1 26 5 18 9
35 9 38 0 3 5 -2 11 -10 8 -12 10 -9 6 12 -2 15 -1 25 3 23 4 -3 10 9 12 25 3
17 3 30 2 30 -1 0 -14 -14 -28 -30z m-99 -66 c-3 -3 -12 -4 -19 -1 -8 3 -5 6
6 6 11 1 17 -2 13 -5z"/>
<path d="M4345 3100 c3 -5 11 -10 16 -10 6 0 7 5 4 10 -3 6 -11 10 -16 10 -6
0 -7 -4 -4 -10z"/>
<path d="M2215 2590 c-44 -5 -118 -18 -164 -30 -86 -22 -231 -78 -231 -89 1
-3 36 -44 79 -90 l78 -85 89 27 c132 39 252 57 384 57 325 0 545 -116 663
-349 l28 -56 -4 68 c-15 226 -279 460 -595 527 -110 23 -225 30 -327 20z"/>
<path d="M3785 2583 c-250 -39 -477 -161 -597 -319 l-40 -53 17 -45 17 -45 38
48 c175 221 587 294 972 171 l88 -28 71 79 71 79 -73 35 c-122 58 -213 77
-384 80 -82 2 -163 1 -180 -2z"/>
<path d="M4498 2470 c-49 -13 -69 -26 -128 -85 -38 -38 -70 -72 -70 -76 0 -7
92 -49 107 -49 13 0 160 219 151 224 -2 1 -29 -5 -60 -14z"/>
<path d="M2199 2309 c-149 -16 -343 -76 -468 -146 l-64 -36 42 -38 42 -39 97
24 c232 59 323 71 557 71 195 0 230 -3 310 -23 125 -32 224 -81 274 -138 40
-46 40 -46 47 -20 19 76 -74 183 -219 251 -179 85 -395 118 -618 94z"/>
<path d="M3650 2291 c-162 -36 -298 -101 -371 -178 -48 -50 -59 -73 -59 -124
l0 -41 41 42 c110 113 381 173 680 150 141 -10 352 -45 493 -81 43 -11 81 -18
84 -15 3 4 -2 6 -11 6 -26 0 -20 13 18 39 19 13 35 27 35 31 0 10 -154 85
-236 114 -149 54 -229 68 -414 72 -145 3 -190 1 -260 -15z"/>
<path d="M2055 2049 c-139 -18 -473 -114 -610 -176 l-40 -18 60 -3 c208 -8
1092 -70 1253 -88 44 -5 51 -8 43 -21 -22 -40 19 -100 96 -140 85 -45 193 -66
311 -61 119 6 192 32 259 92 42 38 48 48 48 84 l0 40 75 6 c41 4 316 24 610
46 294 22 564 43 600 46 l64 6 -59 25 c-119 48 -352 122 -454 143 -428 87
-901 -41 -901 -244 0 -14 7 -29 15 -34 40 -22 -33 -96 -135 -136 -60 -24 -202
-32 -271 -16 -72 17 -138 51 -177 91 -29 29 -30 34 -17 49 36 39 -2 134 -72
183 -156 107 -439 159 -698 126z"/>
<path d="M4538 2033 c7 -3 16 -2 19 1 4 3 -2 6 -13 5 -11 0 -14 -3 -6 -6z"/>
<path d="M3040 1886 c-14 -8 -51 -43 -82 -79 -31 -35 -71 -70 -88 -77 l-31
-13 37 -25 c69 -47 140 -65 249 -65 109 1 168 15 242 58 l46 28 -46 23 c-25
13 -65 47 -89 75 -23 28 -60 60 -80 70 -44 22 -122 24 -158 5z"/>
</g>
</svg>
